HIERARCHY
ROOT joint_Root
{
  OFFSET 0 0 0
  CHANNELS 6 Xposition Yposition Zposition Zrotation Xrotation Yrotation
  JOINT Hips
  {
    OFFSET 0 93.9241 -3
    CHANNELS 6 Xposition Yposition Zposition Zrotation Xrotation Yrotation
    JOINT Spine
    {
      OFFSET 15.7357 0 0
      CHANNELS 6 Xposition Yposition Zposition Zrotation Xrotation Yrotation
      JOINT Chest
      {
        OFFSET 8.98455 -0.406207 0
        CHANNELS 6 Xposition Yposition Zposition Zrotation Xrotation Yrotation
        JOINT Neck
        {
          OFFSET 16.3773 0 0
          CHANNELS 6 Xposition Yposition Zposition Zrotation Xrotation Yrotation
          JOINT Head
          {
            OFFSET 6.45672 0 0
            CHANNELS 6 Xposition Yposition Zposition Zrotation Xrotation Yrotation
            End Site
            {
              OFFSET 0 0 0
            }
          }
        }
        JOINT Shoulder_L
        {
          OFFSET 12.9942 -0.242716 4.98039
          CHANNELS 6 Xposition Yposition Zposition Zrotation Xrotation Yrotation
          JOINT UpperArm_L
          {
            OFFSET 5.34809 0 0
            CHANNELS 6 Xposition Yposition Zposition Zrotation Xrotation Yrotation
            JOINT LowerArm_L
            {
              OFFSET 24.3286 1.87007e-05 0
              CHANNELS 6 Xposition Yposition Zposition Zrotation Xrotation Yrotation
              JOINT Hand_L
              {
                OFFSET 22.2916 0 0
                CHANNELS 6 Xposition Yposition Zposition Zrotation Xrotation Yrotation
                End Site
                {
                  OFFSET 0 0 0
                }
              }
            }
          }
        }
        JOINT Shoulder_R
        {
          OFFSET 12.9945 -0.242716 -4.98039
          CHANNELS 6 Xposition Yposition Zposition Zrotation Xrotation Yrotation
          JOINT UpperArm_R
          {
            OFFSET -5.34813 0 0
            CHANNELS 6 Xposition Yposition Zposition Zrotation Xrotation Yrotation
            JOINT LowerArm_R
            {
              OFFSET -24.3289 0.000322201 0
              CHANNELS 6 Xposition Yposition Zposition Zrotation Xrotation Yrotation
              JOINT Hand_R
              {
                OFFSET -22.2915 -0.000108084 0
                CHANNELS 6 Xposition Yposition Zposition Zrotation Xrotation Yrotation
                End Site
                {
                  OFFSET 0 0 0
                }
              }
            }
          }
        }
      }
    }
    JOINT UpperLeg_L
    {
      OFFSET -2.19248 -6.46944 0
      CHANNELS 6 Xposition Yposition Zposition Zrotation Xrotation Yrotation
      JOINT LowerLeg_L
      {
        OFFSET 39.0811 0 -1.23785e-05
        CHANNELS 6 Xposition Yposition Zposition Zrotation Xrotation Yrotation
        JOINT Foot_L
        {
          OFFSET 40.9854 0 -1.26872e-05
          CHANNELS 6 Xposition Yposition Zposition Zrotation Xrotation Yrotation
          JOINT Toes_L
          {
            OFFSET 11.7543 0 0
            CHANNELS 6 Xposition Yposition Zposition Zrotation Xrotation Yrotation
            End Site
            {
              OFFSET 0 0 0
            }
          }
        }
      }
    }
    JOINT UpperLeg_R
    {
      OFFSET -2.19251 6.46944 0
      CHANNELS 6 Xposition Yposition Zposition Zrotation Xrotation Yrotation
      JOINT LowerLeg_R
      {
        OFFSET -39.0811 -0.00228153 -0.0401928
        CHANNELS 6 Xposition Yposition Zposition Zrotation Xrotation Yrotation
        JOINT Foot_R
        {
          OFFSET -40.9854 0 0
          CHANNELS 6 Xposition Yposition Zposition Zrotation Xrotation Yrotation
          JOINT Toes_R
          {
            OFFSET -11.7543 0 0
            CHANNELS 6 Xposition Yposition Zposition Zrotation Xrotation Yrotation
            End Site
            {
              OFFSET 0 0 0
            }
          }
        }
      }
    }
  }
}
MOTION
Frames:	8
Frame Time:	0.0333333
0 0 0 0 0 -0 -256.79 90.3741 -8.11527 79.6397 71.5089 13.6973 15.7357 5.1072e-06 -5.51764e-07 58.7236 87.1492 -53.6909 8.98455 -0.406207 -4.3199e-07 -2.72479 -3.4194 9.98729 16.3773 -1.3905e-06 -6.99897e-07 -6.60847 -10.256 -13.3507 6.45672 -1.25837e-06 -1.02172e-07 -3.35263 -23.3264 -14.4151 12.9942 -0.242716 4.98039 -90.5429 3.18367 -95.3183 5.34809 -7.22636e-06 -6.2814e-07 -67.4493 -9.88551 18.2882 24.3286 1.87007e-05 4.90208e-06 0.822546 9.58555 -4.92559 22.2916 -9.88446e-07 4.63217e-06 6.89131 5.24556 1.54953 12.9945 -0.242716 -4.98039 89.2507 3.81199 -93.8711 -5.34813 -1.25947e-06 -3.79883e-06 -57.7054 -18.6311 5.83001 -24.3289 0.000322201 -8.65921e-06 0.841321 3.42605 -13.8216 -22.2915 -0.000108084 -4.47941e-06 21.8788 5.49767 -6.43937 -2.19248 -6.46944 -1.22533e-07 -175.542 -5.19482 -20.3293 39.0811 -6.73843e-06 -1.23785e-05 -0.30639 0.100386 71.2163 40.9854 -6.48686e-06 -1.26872e-05 5.35485 -7.30865 -42.4793 11.7543 -2.30145e-07 3.05095e-06 0.427847 -0.517103 -21.4686 -2.19251 6.46944 -1.45247e-06 -168.94 10.2419 169.026 -39.0811 -0.00228153 -0.0401928 0.301129 -0.491209 28.1924 -40.9854 7.72618e-06 5.99936e-06 3.33647 -21.8128 -65.9245 -11.7543 -5.6619e-06 -5.58687e-06 0.104561 -0.109793 -17.418 
0 0 0 0 0 -0 -255.672 90.5851 -8.37741 80.9114 73.0897 12.515 15.7357 5.1072e-06 -5.51765e-07 70.0884 87.0958 -65.4874 8.98455 -0.406207 -4.3199e-07 -2.19339 -2.37691 9.15668 16.3773 -1.3905e-06 -6.99897e-07 -6.54449 -11.0729 -13.3113 6.45672 -1.25837e-06 -1.02172e-07 -3.86168 -25.3781 -13.9952 12.9942 -0.242716 4.98039 -90.6349 3.36548 -94.3114 5.34809 -7.22636e-06 -6.2814e-07 -66.5368 -10.9822 19.05 24.3286 1.87007e-05 4.90208e-06 1.10966 10.0256 -6.34905 22.2916 -9.88446e-07 4.63217e-06 7.85735 5.25273 1.36275 12.9945 -0.242716 -4.98039 89.3609 3.46807 -94.5516 -5.34813 -1.25947e-06 -3.79883e-06 -58.3139 -18.5556 3.60735 -24.3289 0.000322201 -8.65921e-06 0.847493 3.5784 -13.3501 -22.2915 -0.000108084 -4.47941e-06 22.088 5.486 -5.97906 -2.19248 -6.46944 -1.22533e-07 -176.453 -1.07073 -25.011 39.0811 -6.73843e-06 -1.23785e-05 -0.443623 0.15343 70.1471 40.9854 -6.48686e-06 -1.26872e-05 9.78027 -12.9929 -44.8635 11.7543 -2.30145e-07 3.05095e-06 0.426829 -0.515791 -21.4565 -2.19251 6.46944 -1.45247e-06 -170.24 10.7325 169.825 -39.0811 -0.00228153 -0.0401928 0.244651 -0.390748 27.9596 -40.9854 7.72618e-06 5.99936e-06 2.22247 -22.6536 -66.6173 -11.7543 -5.6619e-06 -5.58687e-06 0.119668 -0.125906 -17.5409 
0 0 0 0 0 -0 -254.576 90.8856 -8.61261 82.4266 75.0948 10.8007 15.7357 5.1072e-06 -5.51764e-07 78.5472 87.0142 -74.4539 8.98455 -0.406207 -4.3199e-07 -1.84583 -1.52842 8.16091 16.3773 -1.3905e-06 -6.99897e-07 -6.62952 -11.9965 -13.1229 6.45672 -1.25837e-06 -1.02172e-07 -4.16187 -27.3922 -13.1658 12.9942 -0.242716 4.98039 -90.6865 3.33119 -93.3491 5.34809 -7.22636e-06 -6.2814e-07 -65.6943 -13.0606 19.6157 24.3286 1.87007e-05 4.90208e-06 1.29705 9.73475 -7.62559 22.2916 -9.88446e-07 4.63217e-06 8.46079 5.26708 0.976528 12.9945 -0.242716 -4.98039 89.4737 3.01495 -95.0945 -5.34813 -1.25947e-06 -3.79883e-06 -58.9312 -18.5579 2.01973 -24.3289 0.000322201 -8.65921e-06 0.920226 3.89391 -13.3229 -22.2915 -0.000108084 -4.47941e-06 21.7514 5.47225 -5.45383 -2.19248 -6.46944 -1.22533e-07 -176.859 3.05359 -28.595 39.0811 -6.73843e-06 -1.23785e-05 -0.409552 0.177369 65.5307 40.9854 -6.48686e-06 -1.26872e-05 9.44998 -15.0228 -46.7975 11.7543 -2.30145e-07 3.05095e-06 0.41828 -0.504537 -21.3535 -2.19251 6.46944 -1.45247e-06 -171.467 11.0083 170.66 -39.0811 -0.00228153 -0.0401928 0.166185 -0.257355 27.0464 -40.9854 7.72618e-06 5.99936e-06 1.2085 -23.855 -66.9524 -11.7543 -5.6619e-06 -5.58687e-06 0.112872 -0.118663 -17.4858 
0 0 0 0 0 -0 -253.546 91.1609 -8.79146 83.5117 77.1188 9.04003 15.7357 5.1072e-06 -5.51765e-07 86.4294 87.0223 -82.8154 8.98455 -0.406207 -4.3199e-07 -1.79075 -0.671853 7.21592 16.3773 -1.3905e-06 -6.99897e-07 -6.83864 -13.0201 -12.7487 6.45672 -1.25837e-06 -1.02172e-07 -4.31547 -29.3495 -11.9566 12.9942 -0.242716 4.98039 -90.7414 3.35744 -92.5403 5.34809 -7.22636e-06 -6.2814e-07 -64.9026 -14.943 20.3283 24.3286 1.87007e-05 4.90208e-06 1.75338 10.6399 -9.41157 22.2916 -9.88446e-07 4.63217e-06 8.30402 5.26908 0.923175 12.9945 -0.242716 -4.98039 89.5391 2.77644 -95.5701 -5.34813 -1.25947e-06 -3.79883e-06 -59.0593 -18.2364 1.15005 -24.3289 0.000322201 -8.65921e-06 0.888694 3.6725 -13.629 -22.2915 -0.000108084 -4.47941e-06 21.0591 5.46128 -5.0468 -2.19248 -6.46944 -1.22533e-07 -176.988 6.20305 -31.2255 39.0811 -6.73843e-06 -1.23785e-05 -0.335024 0.19476 58.1782 40.9854 -6.48686e-06 -1.26872e-05 9.45785 -14.2276 -48.5947 11.7543 -2.30145e-07 3.05095e-06 0.394785 -0.473809 -21.0718 -2.19251 6.46944 -1.45247e-06 -172.271 10.8823 171.122 -39.0811 -0.00228153 -0.0401928 0.0914587 -0.122512 25.9166 -40.9854 7.72618e-06 5.99936e-06 0.223378 -25.5711 -67.175 -11.7543 -5.6619e-06 -5.58687e-06 0.131292 -0.138377 -17.6358 
0 0 0 0 0 -0 -252.442 91.3612 -8.8817 83.4964 79.1067 8.19263 15.7357 5.1072e-06 -5.51765e-07 93.6573 87.0035 -90.4747 8.98455 -0.406207 -4.3199e-07 -1.7805 0.117275 6.36554 16.3773 -1.3905e-06 -6.99897e-07 -7.21867 -14.034 -12.173 6.45672 -1.25837e-06 -1.02172e-07 -4.4067 -31.2513 -10.4981 12.9942 -0.242716 4.98039 -90.8 3.44139 -91.9049 5.34809 -7.22636e-06 -6.2814e-07 -64.2214 -16.0077 21.0531 24.3286 1.87007e-05 4.90208e-06 2.3896 11.932 -11.4088 22.2916 -9.88446e-07 4.63217e-06 8.24464 5.27207 0.841862 12.9945 -0.242716 -4.98039 89.5409 2.86975 -95.9064 -5.34813 -1.25947e-06 -3.79883e-06 -58.8484 -18.0489 0.518009 -24.3289 0.000322201 -8.65921e-06 0.992043 4.03824 -13.8288 -22.2915 -0.000108084 -4.47941e-06 20.6831 5.45298 -4.74629 -2.19248 -6.46944 -1.22534e-07 -177.205 7.56299 -32.4378 39.0811 -6.73843e-06 -1.23785e-05 -0.244976 0.204263 48.2384 40.9854 -6.48686e-06 -1.26872e-05 9.43584 -14.0377 -50.3118 11.7543 -2.30145e-07 3.05095e-06 0.388353 -0.465468 -20.9953 -2.19251 6.46944 -1.45247e-06 -172.682 11.1612 171.487 -39.0811 -0.00228153 -0.0401928 0.0379425 -0.0186636 24.7902 -40.9854 7.72618e-06 5.99936e-06 -0.644345 -26.9585 -67.5054 -11.7543 -5.6619e-06 -5.58687e-06 0.104956 -0.110202 -17.421 
0 0 0 0 0 -0 -251.167 91.4041 -8.85542 81.9221 80.9849 8.88104 15.7357 5.1072e-06 -5.51765e-07 99.4911 86.9662 -96.687 8.98455 -0.406207 -4.3199e-07 -1.79405 0.766575 5.61908 16.3773 -1.3905e-06 -6.99897e-07 -7.65151 -14.9597 -11.3422 6.45672 -1.25837e-06 -1.02172e-07 -4.5063 -33.0028 -9.06186 12.9942 -0.242716 4.98039 -90.8473 3.49414 -91.3605 5.34809 -7.22636e-06 -6.2814e-07 -63.3807 -17.2401 22.0461 24.3286 1.87007e-05 4.90208e-06 3.16464 12.9901 -13.8161 22.2916 -9.88446e-07 4.63217e-06 8.3384 5.26269 1.09534 12.9945 -0.242716 -4.98039 89.5305 3.10592 -96.3993 -5.34813 -1.25947e-06 -3.79883e-06 -58.453 -17.7572 0.342521 -24.3289 0.000322201 -8.65921e-06 1.17493 4.70708 -14.0442 -22.2915 -0.000108084 -4.47941e-06 20.6707 5.44056 -4.30462 -2.19248 -6.46944 -1.22534e-07 -178.215 6.12063 -31.6141 39.0811 -6.73843e-06 -1.23785e-05 -0.155756 0.201009 35.3664 40.9854 -6.48686e-06 -1.26872e-05 8.39621 -13.6891 -51.2807 11.7543 -2.30145e-07 3.05095e-06 0.383095 -0.458663 -20.9326 -2.19251 6.46944 -1.45247e-06 -172.723 11.2781 171.767 -39.0811 -0.00228153 -0.0401928 -0.00569356 0.075162 24.1783 -40.9854 7.72618e-06 5.99936e-06 -1.69213 -28.4307 -68.354 -11.7543 -5.6619e-06 -5.58687e-06 0.115948 -0.12194 -17.5107 
0 0 0 0 0 -0 -249.549 91.218 -8.64045 77.0158 82.6888 13.2816 15.7357 5.1072e-06 -5.51765e-07 103.649 86.8247 -101.117 8.98455 -0.406207 -4.3199e-07 -1.61834 1.29103 5.07995 16.3773 -1.3905e-06 -6.99897e-07 -8.11593 -15.8566 -10.3085 6.45672 -1.25837e-06 -1.02172e-07 -4.68202 -34.6074 -7.84295 12.9942 -0.242716 4.98039 -90.8865 3.48443 -90.7165 5.34809 -7.22636e-06 -6.2814e-07 -62.3991 -18.4356 23.3034 24.3286 1.87007e-05 4.90208e-06 4.27241 14.0693 -17.08 22.2916 -9.88446e-07 4.63217e-06 8.497 5.24893 1.461 12.9945 -0.242716 -4.98039 89.5454 3.18783 -96.8799 -5.34813 -1.25947e-06 -3.79883e-06 -58.305 -17.8374 0.345199 -24.3289 0.000322201 -8.65921e-06 1.34301 5.43732 -13.9064 -22.2915 -0.000108084 -4.47941e-06 20.4517 5.44056 -4.30536 -2.19248 -6.46944 -1.22534e-07 179.366 1.03088 -27.9478 39.0811 -6.73843e-06 -1.23785e-05 -0.0714023 0.17425 19.6534 40.9854 -6.48686e-06 -1.26872e-05 5.97034 -11.3269 -51.836 11.7543 -2.30145e-07 3.05095e-06 0.375342 -0.448633 -20.8403 -2.19251 6.46944 -1.45247e-06 -172.405 11.9747 172.361 -39.0811 -0.00228153 -0.0401928 -0.0346463 0.13897 24.3225 -40.9854 7.72618e-06 5.99936e-06 -2.88676 -29.2437 -69.9762 -11.7543 -5.6619e-06 -5.58687e-06 0.0904833 -0.0948117 -17.3035 
0 0 0 0 0 -0 -247.528 90.7405 -8.29163 66.7011 83.9627 23.3129 15.7357 5.1072e-06 -5.51765e-07 107.406 86.6478 -105.01 8.98455 -0.406207 -4.3199e-07 -1.4021 1.81348 4.81458 16.3773 -1.3905e-06 -6.99897e-07 -8.40037 -16.8754 -9.1105 6.45672 -1.25837e-06 -1.02172e-07 -5.2201 -36.0767 -6.87678 12.9942 -0.242716 4.98039 -90.8989 3.37365 -90.0723 5.34809 -7.22636e-06 -6.2814e-07 -61.2121 -20.1155 24.542 24.3286 1.87007e-05 4.90208e-06 5.52497 14.971 -20.5264 22.2916 -9.88446e-07 4.63217e-06 9.01929 5.26484 1.039 12.9945 -0.242716 -4.98039 89.5679 3.16723 -97.2263 -5.34813 -1.25947e-06 -3.79883e-06 -58.2781 -17.7209 0.366977 -24.3289 0.000322201 -8.65921e-06 1.26581 5.38333 -13.2634 -22.2915 -0.000108084 -4.47941e-06 20.0576 5.43931 -4.26114 -2.19248 -6.46944 -1.22533e-07 175.928 -6.42193 -24.8805 39.0811 -6.73843e-06 -1.23785e-05 -0.0136178 0.0752419 7.44171 40.9854 -6.48686e-06 -1.26872e-05 3.36289 -4.8615 -53.7594 11.7543 -2.30145e-07 3.05095e-06 0.373743 -0.446592 -20.8215 -2.19251 6.46944 -1.45247e-06 -171.838 14.1734 173.042 -39.0811 -0.00228153 -0.0401928 -0.0476711 0.164465 25.4529 -40.9854 7.72618e-06 5.99936e-06 -4.06425 -28.3159 -72.4023 -11.7543 -5.6619e-06 -5.58687e-06 0.0439437 -0.0457376 -16.9269 
